<svg xmlns="http://www.w3.org/2000/svg" viewBox="0 0 64 64" role="img" aria-label="Abyssum mark">
  <rect width="64" height="64" fill="transparent"/>
  <path d="M22 32 c0-6 5-11 10-11 s10 5 10 11 -5 11 -10 11 -10-5 -10-11 c0-4 3-7 7-7 s7 3 7 7 -3 7 -7 7 -7-3 -7-7 m10-7 c-3 0-5 2-5 5 s2 5 5 5 5-2 5-5 -2-5-5-5 m0 5 c0 1-1 2-2 2 s-2-1-2-2 1-2 2-2 2 1 2 2"
        fill="none" stroke="#000" stroke-width="6" stroke-linecap="round" stroke-linejoin="round"/>
  <path d="M34 26 c2 0 4 1 4 4 s-2 4-4 4 -4-1-4-4 2-4 4-4 z"
        fill="none" stroke="#000" stroke-width="6" stroke-linecap="round" stroke-linejoin="round"/>
</svg>
